name C:\Users\u0101727\Documents\MyRepositories\paper-ad\predictivesimulations_2d/Results/PredSim_2D/IK_c26.mot
datacolumns 11
datarows 34
range 0.00000000 0.31658018
endheader
time	pelvis_tilt	pelvis_tx	pelvis_ty	hip_flexion_l	hip_flexion_r	knee_angle_l	knee_angle_r	ankle_angle_l	ankle_angle_r	lumbar_extension	
          0.00000000	        -15.12562304	          0.00000000	          0.88366302	          0.94848496	         38.05942170	        -16.23266298	        -10.56930744	          5.76992917	         13.84061119	          9.62668520	
          0.00959334	        -15.08759614	          0.01477709	          0.88287687	          0.85480069	         37.57485121	        -17.72619186	         -9.96395626	          4.56937272	         13.39253936	          9.72355260	
          0.01918668	        -15.03852172	          0.02981759	          0.88203979	          0.83985287	         36.99508762	        -19.38718984	         -9.64460861	          3.26497476	         12.89239005	          9.83345765	
          0.02878002	        -14.98095652	          0.04510448	          0.88117518	          0.91087525	         36.25204826	        -21.21255089	         -9.73182518	          1.83677603	         12.33809612	          9.96037567	
          0.03837335	        -14.92311053	          0.06045191	          0.88040990	          1.07250211	         35.38888913	        -23.18370885	        -10.04591625	          0.37018307	         11.76898991	         10.09487943	
          0.04796669	        -14.87595489	          0.07551925	          0.87997330	          1.35158464	         34.53080470	        -25.20826358	        -10.32595984	         -0.91329674	         11.21900458	         10.21372715	
          0.05756003	        -14.84804979	          0.09005945	          0.88012704	          1.77638158	         33.71504939	        -27.14603956	        -10.58411069	         -1.91568382	         10.68800819	         10.30300615	
          0.06715337	        -14.84173931	          0.10400953	          0.88102693	          2.34279077	         32.94409073	        -28.93434506	        -10.81525667	         -2.66634533	         10.19064159	         10.36157626	
          0.07674671	        -14.85233727	          0.11745269	          0.88263228	          3.03404150	         32.19940615	        -30.59386791	        -11.00740256	         -3.17471577	          9.74318569	         10.39557889	
          0.08634005	        -14.87325217	          0.13051311	          0.88473343	          3.82961428	         31.45988055	        -32.15376915	        -11.15162013	         -3.45354901	          9.35712574	         10.41203737	
          0.09593339	        -14.89911962	          0.14329824	          0.88709786	          4.71395509	         30.70870659	        -33.63166900	        -11.24108998	         -3.51840981	          9.03873199	         10.41626561	
          0.10552673	        -14.92650146	          0.15588234	          0.88954287	          5.67503314	         29.93643337	        -35.03601314	        -11.27388691	         -3.38432161	          8.78962041	         10.41146006	
          0.11512006	        -14.95350429	          0.16831236	          0.89194487	          6.70383638	         29.13853539	        -36.36808196	        -11.25044553	         -3.06758659	          8.60876002	         10.39937893	
          0.12471340	        -14.97916674	          0.18061839	          0.89422462	          7.79296004	         28.31346508	        -37.62478024	        -11.17276786	         -2.58494534	          8.49350927	         10.38103243	
          0.13430674	        -15.00299967	          0.19282072	          0.89633170	          8.93622548	         27.46159358	        -38.80123242	        -11.04433191	         -1.95326612	          8.44012317	         10.35703593	
          0.14390008	        -15.02473612	          0.20493442	          0.89823370	         10.12808791	         26.58457005	        -39.89133958	        -10.86997728	         -1.18949568	          8.44405892	         10.32784005	
          0.15349342	        -15.04420462	          0.21697190	          0.89990962	         11.36318840	         25.68498722	        -40.88834349	        -10.65573500	         -0.31080294	          8.50017316	         10.29385164	
          0.16308676	        -15.06128147	          0.22894409	          0.90134682	         12.63610624	         24.76614839	        -41.78506214	        -10.40862338	          0.66542058	          8.60288367	         10.25548666	
          0.17268010	        -15.07588004	          0.24086045	          0.90254043	         13.94147124	         23.83202003	        -42.57386887	        -10.13662969	          1.72160819	          8.74637697	         10.21313834	
          0.18227344	        -15.08798418	          0.25272861	          0.90349370	         15.27427118	         22.88704134	        -43.24664272	         -9.84758811	          2.84009006	          8.92478445	         10.16712543	
          0.19186677	        -15.09771603	          0.26455586	          0.90421724	         16.62854765	         21.93512185	        -43.79583937	         -9.54857345	          4.00305767	          9.13162566	         10.11792037	
          0.20146011	        -15.10523956	          0.27634845	          0.90472801	         17.99847120	         20.98042694	        -44.21376064	         -9.24711897	          5.19266753	          9.35923224	         10.06595293	
          0.21105345	        -15.11069717	          0.28811192	          0.90504674	         19.37852704	         20.02751408	        -44.49264136	         -8.95107361	          6.39110002	          9.59954973	         10.01156813	
          0.22064679	        -15.11423630	          0.29985224	          0.90519486	         20.76226120	         19.08116397	        -44.62549055	         -8.66875381	          7.58056289	          9.84463340	          9.95514342	
          0.23024013	        -15.11607761	          0.31157649	          0.90519262	         22.14273869	         18.14461318	        -44.60667680	         -8.40578093	          8.74338367	         10.08714229	          9.89721408	
          0.23983347	        -15.11653635	          0.32329300	          0.90505812	         23.51305160	         17.21870709	        -44.43214870	         -8.16353337	          9.86219388	         10.32041835	          9.83852078	
          0.24942681	        -15.11589354	          0.33501049	          0.90480689	         24.86535656	         16.30488751	        -44.09983848	         -7.94482813	         10.92025909	         10.53767706	          9.77979042	
          0.25902015	        -15.11439351	          0.34673719	          0.90445204	         26.19164491	         15.40530462	        -43.60885788	         -7.75329603	         11.90213241	         10.73284602	          9.72164780	
          0.26861348	        -15.11227767	          0.35848217	          0.90400423	         27.48311445	         14.52153406	        -42.96223085	         -7.59198170	         12.79441416	         10.90129380	          9.66482688	
          0.27820682	        -15.10980481	          0.37025385	          0.90347262	         28.73177335	         13.65450795	        -42.16443486	         -7.46289891	         13.58687248	         11.04007268	          9.61001728	
          0.28780016	        -15.10723935	          0.38205888	          0.90286526	         29.93139913	         12.80507867	        -41.21986067	         -7.36712271	         14.27341693	         11.14805217	          9.55770959	
          0.29739350	        -15.10481989	          0.39390355	          0.90218871	         31.07629387	         11.97395376	        -40.13520494	         -7.30632198	         14.85244467	         11.22595316	          9.50834379	
          0.30698684	        -15.10276775	          0.40579221	          0.90144831	         32.16351872	         11.16145531	        -38.91593743	         -7.28139853	         15.32678016	         11.27658837	          9.46210843	
          0.31658018	        -15.10129403	          0.41772848	          0.90064784	         33.19169665	         10.36747003	        -37.56706052	         -7.29275870	         15.70269910	         11.30440632	          9.41907156	
